# xmcd
#
# Track frame offsets: 
#        150
#        14979
#        27881
#        44694
#        59138
#        73094
#        92185
#        115182
#        129147
#        142957
#        157313
#        182515
#        195956
#        210143
#        224943
#        237604
#        261082
#        271530
#        288688
#        310424
#        327560
#
# Disc length: 4618 seconds
#
# Revision: 3
# Processed by: cddbd v1.5.2PL0 Copyright (c) Steve Scherf et al.
# Submitted via: ExactAudioCopy v1.0b1
#
DISCID=50120815
DTITLE=Al Green - The Definitive Greatest Hits
DYEAR=2007
DGENRE=Soul
TTITLE0=Let's Stay Together
TTITLE1=Tired of Being Alone
TTITLE2=Take Me to the River
TTITLE3=I'm Still in Love with You
TTITLE4=Look What You Done for Me
TTITLE5=Here I Am (Come and Take Me)
TTITLE6=Love and Happiness
TTITLE7=Keep Me Cryin'
TTITLE8=Call Me (Come Back Home)
TTITLE9=Livin' for You
TTITLE10=Let's Get Married
TTITLE11=Sha-La-La (Make Me Happy)
TTITLE12=L-O-V-E (Love)
TTITLE13=You Ought to Be with Me
TTITLE14=Oh Me, Oh My (Dreams in My Arms)
TTITLE15=Full of Fire
TTITLE16=Back up Train (Al Greene and the Soul Mates)
TTITLE17=I Can't Get Next to You
TTITLE18=Belle
TTITLE19=I Can't Stop
TTITLE20=Perfect to Me
EXTD=
EXTT0=
EXTT1=
EXTT2=
EXTT3=
EXTT4=
EXTT5=
EXTT6=
EXTT7=
EXTT8=
EXTT9=
EXTT10=
EXTT11=
EXTT12=
EXTT13=
EXTT14=
EXTT15=
EXTT16=
EXTT17=
EXTT18=
EXTT19=
EXTT20=
PLAYORDER=
